<svg width="20" height="20" viewBox="0 0 20 20" fill="none" xmlns="http://www.w3.org/2000/svg">
<path d="M16.6667 3.33333H3.33335C2.41669 3.33333 1.67502 4.08333 1.67502 5L1.66669 15C1.66669 15.9167 2.41669 16.6667 3.33335 16.6667H16.6667C17.5834 16.6667 18.3334 15.9167 18.3334 15V5C18.3334 4.08333 17.5834 3.33333 16.6667 3.33333ZM16.3334 6.875L10.4417 10.5583C10.175 10.725 9.82502 10.725 9.55835 10.5583L3.66669 6.875C3.58313 6.82809 3.50995 6.76472 3.45159 6.68871C3.39324 6.61271 3.35091 6.52565 3.32717 6.43281C3.30343 6.33997 3.29877 6.24328 3.31348 6.14859C3.3282 6.0539 3.36197 5.96318 3.41276 5.88192C3.46354 5.80066 3.53029 5.73055 3.60896 5.67583C3.68763 5.62111 3.77658 5.58293 3.87043 5.56358C3.96429 5.54424 4.06109 5.54414 4.15498 5.56329C4.24888 5.58244 4.33791 5.62045 4.41669 5.675L10 9.16667L15.5834 5.675C15.6621 5.62045 15.7512 5.58244 15.8451 5.56329C15.939 5.54414 16.0358 5.54424 16.1296 5.56358C16.2235 5.58293 16.3124 5.62111 16.3911 5.67583C16.4697 5.73055 16.5365 5.80066 16.5873 5.88192C16.6381 5.96318 16.6718 6.0539 16.6866 6.14859C16.7013 6.24328 16.6966 6.33997 16.6729 6.43281C16.6491 6.52565 16.6068 6.61271 16.5484 6.68871C16.4901 6.76472 16.4169 6.82809 16.3334 6.875Z" fill="#000C6E"/>
</svg>
