<svg width="20" height="20" viewBox="0 0 20 20" fill="none" xmlns="http://www.w3.org/2000/svg">
<path d="M10.8567 1.6675C11.4648 1.66517 12.0729 1.67128 12.6808 1.68583L12.8425 1.69167C13.0292 1.69833 13.2133 1.70667 13.4358 1.71667C14.3225 1.75833 14.9275 1.89833 15.4583 2.10417C16.0083 2.31583 16.4717 2.6025 16.935 3.06583C17.3587 3.48217 17.6865 3.98579 17.8958 4.54167C18.1017 5.0725 18.2417 5.67833 18.2833 6.565C18.2933 6.78667 18.3017 6.97167 18.3083 7.15833L18.3133 7.32C18.3282 7.92766 18.3345 8.5355 18.3325 9.14333L18.3333 9.765V10.8567C18.3354 11.4648 18.329 12.0729 18.3142 12.6808L18.3092 12.8425C18.3025 13.0292 18.2942 13.2133 18.2842 13.4358C18.2425 14.3225 18.1008 14.9275 17.8958 15.4583C17.6872 16.0148 17.3593 16.5188 16.935 16.935C16.5183 17.3586 16.0144 17.6865 15.4583 17.8958C14.9275 18.1017 14.3225 18.2417 13.4358 18.2833C13.2133 18.2933 13.0292 18.3017 12.8425 18.3083L12.6808 18.3133C12.0729 18.3281 11.4648 18.3345 10.8567 18.3325L10.235 18.3333H9.14418C8.53606 18.3354 7.92795 18.329 7.32001 18.3142L7.15835 18.3092C6.96052 18.302 6.76274 18.2937 6.56501 18.2842C5.67835 18.2425 5.07335 18.1008 4.54168 17.8958C3.98558 17.687 3.48188 17.359 3.06585 16.935C2.64172 16.5186 2.31353 16.0146 2.10418 15.4583C1.89835 14.9275 1.75835 14.3225 1.71668 13.4358C1.7074 13.2381 1.69907 13.0403 1.69168 12.8425L1.68751 12.6808C1.67215 12.0729 1.6652 11.4648 1.66668 10.8567V9.14333C1.66435 8.5355 1.67047 7.92766 1.68501 7.32L1.69085 7.15833C1.69751 6.97167 1.70585 6.78667 1.71585 6.565C1.75751 5.6775 1.89751 5.07333 2.10335 4.54167C2.31282 3.98552 2.64165 3.48204 3.06668 3.06667C3.48242 2.64229 3.98581 2.31381 4.54168 2.10417C5.07335 1.89833 5.67751 1.75833 6.56501 1.71667L7.15835 1.69167L7.32001 1.6875C7.92767 1.67214 8.5355 1.6652 9.14335 1.66667L10.8567 1.6675ZM10 5.83417C9.44793 5.82636 8.89981 5.92835 8.38749 6.13422C7.87518 6.34009 7.40888 6.64573 7.01572 7.03338C6.62255 7.42102 6.31035 7.88295 6.09725 8.3923C5.88416 8.90166 5.77442 9.44828 5.77442 10.0004C5.77442 10.5525 5.88416 11.0992 6.09725 11.6085C6.31035 12.1179 6.62255 12.5798 7.01572 12.9675C7.40888 13.3551 7.87518 13.6607 8.38749 13.8666C8.89981 14.0725 9.44793 14.1745 10 14.1667C11.1051 14.1667 12.1649 13.7277 12.9463 12.9463C13.7277 12.1649 14.1667 11.1051 14.1667 10C14.1667 8.89493 13.7277 7.83512 12.9463 7.05372C12.1649 6.27232 11.1051 5.83417 10 5.83417ZM10 7.50083C10.3321 7.49471 10.6621 7.55483 10.9707 7.67767C11.2793 7.80051 11.5603 7.98362 11.7973 8.21629C12.0344 8.44896 12.2227 8.72653 12.3512 9.03278C12.4798 9.33904 12.546 9.66785 12.5461 9.99999C12.5461 10.3321 12.48 10.661 12.3515 10.9673C12.2231 11.2736 12.0349 11.5512 11.7979 11.7839C11.561 12.0167 11.28 12.1999 10.9714 12.3228C10.6629 12.4458 10.3329 12.506 10.0008 12.5C9.3378 12.5 8.70192 12.2366 8.23308 11.7678C7.76424 11.2989 7.50085 10.663 7.50085 10C7.50085 9.33696 7.76424 8.70107 8.23308 8.23223C8.70192 7.76339 9.3378 7.5 10.0008 7.5L10 7.50083ZM14.375 4.58417C14.1062 4.59493 13.8519 4.70929 13.6655 4.90331C13.4791 5.09733 13.375 5.35594 13.375 5.625C13.375 5.89405 13.4791 6.15267 13.6655 6.34669C13.8519 6.54071 14.1062 6.65507 14.375 6.66583C14.6513 6.66583 14.9162 6.55609 15.1116 6.36073C15.3069 6.16538 15.4167 5.90043 15.4167 5.62417C15.4167 5.3479 15.3069 5.08295 15.1116 4.8876C14.9162 4.69225 14.6513 4.5825 14.375 4.5825V4.58417Z" fill="#000C6E"/>
</svg>
