<svg width="30" height="31" viewBox="0 0 30 31" fill="none" xmlns="http://www.w3.org/2000/svg">
<path d="M19.4907 4.28398C18.3505 3.05293 16.7579 2.375 15.0001 2.375C13.2329 2.375 11.6351 3.04883 10.5001 4.27227C9.35283 5.50918 8.79384 7.19023 8.92509 9.00547C9.18525 12.5867 11.9104 15.5 15.0001 15.5C18.0897 15.5 20.8102 12.5873 21.0745 9.00664C21.2075 7.20781 20.645 5.53027 19.4907 4.28398ZM25.3126 28.625H4.68759C4.41763 28.6285 4.15028 28.5718 3.90499 28.459C3.65971 28.3462 3.44265 28.1801 3.26962 27.9728C2.88876 27.5176 2.73525 26.8959 2.84892 26.2672C3.34345 23.5238 4.88681 21.2193 7.31259 19.6016C9.46767 18.1654 12.1976 17.375 15.0001 17.375C17.8026 17.375 20.5325 18.166 22.6876 19.6016C25.1134 21.2187 26.6567 23.5232 27.1513 26.2666C27.2649 26.8953 27.1114 27.517 26.7306 27.9723C26.5576 28.1796 26.3406 28.3458 26.0953 28.4587C25.85 28.5716 25.5826 28.6284 25.3126 28.625Z" fill="#000C6E"/>
</svg>
