<svg width="30" height="30" viewBox="0 0 30 30" fill="none" xmlns="http://www.w3.org/2000/svg">
<path d="M26.032 6.89883C25.944 6.79352 25.834 6.70882 25.7096 6.6507C25.5853 6.59259 25.4497 6.56248 25.3125 6.5625H6.40781L5.83477 3.41484C5.75628 2.98281 5.52865 2.59204 5.19157 2.31064C4.85449 2.02923 4.42934 1.87506 3.99023 1.875H1.875C1.62636 1.875 1.3879 1.97377 1.21209 2.14959C1.03627 2.3254 0.9375 2.56386 0.9375 2.8125C0.9375 3.06114 1.03627 3.2996 1.21209 3.47541C1.3879 3.65123 1.62636 3.75 1.875 3.75H3.98437L6.97969 20.1902C7.06792 20.6778 7.28339 21.1334 7.6043 21.5109C7.16138 21.9246 6.8417 22.4529 6.68069 23.0372C6.51969 23.6215 6.52365 24.2389 6.69214 24.8211C6.86064 25.4033 7.18708 25.9274 7.63526 26.3354C8.08345 26.7434 8.63588 27.0192 9.23128 27.1324C9.82668 27.2456 10.4418 27.1917 11.0084 26.9766C11.575 26.7615 12.071 26.3937 12.4414 25.914C12.8117 25.4342 13.042 24.8613 13.1066 24.2587C13.1712 23.6561 13.0676 23.0474 12.8074 22.5H18.1301C17.9203 22.9391 17.8118 23.4196 17.8125 23.9062C17.8125 24.5552 18.0049 25.1896 18.3655 25.7292C18.726 26.2688 19.2385 26.6894 19.8381 26.9377C20.4376 27.1861 21.0974 27.2511 21.7339 27.1245C22.3704 26.9978 22.9551 26.6853 23.4139 26.2264C23.8728 25.7676 24.1853 25.1829 24.312 24.5464C24.4386 23.9099 24.3736 23.2501 24.1252 22.6506C23.8769 22.051 23.4563 21.5385 22.9167 21.178C22.3771 20.8174 21.7427 20.625 21.0937 20.625H9.74648C9.52693 20.625 9.31436 20.5479 9.14582 20.4072C8.97728 20.2665 8.86346 20.0711 8.82422 19.8551L8.45273 17.8125H22.0465C22.7051 17.8124 23.3429 17.5811 23.8485 17.159C24.3541 16.7369 24.6955 16.1508 24.8133 15.5027L26.2383 7.66758C26.2624 7.53216 26.2564 7.39308 26.2208 7.26023C26.1851 7.12737 26.1207 7.00399 26.032 6.89883ZM21.0937 22.5C21.3719 22.5 21.6438 22.5825 21.875 22.737C22.1063 22.8915 22.2865 23.1111 22.393 23.3681C22.4994 23.6251 22.5272 23.9078 22.473 24.1806C22.4187 24.4534 22.2848 24.704 22.0881 24.9006C21.8914 25.0973 21.6409 25.2312 21.3681 25.2855C21.0953 25.3397 20.8126 25.3119 20.5556 25.2055C20.2986 25.099 20.079 24.9188 19.9245 24.6875C19.77 24.4563 19.6875 24.1844 19.6875 23.9062C19.6875 23.5333 19.8357 23.1756 20.0994 22.9119C20.3631 22.6482 20.7208 22.5 21.0937 22.5ZM9.84375 22.5C10.1219 22.5 10.3938 22.5825 10.625 22.737C10.8563 22.8915 11.0365 23.1111 11.143 23.3681C11.2494 23.6251 11.2772 23.9078 11.223 24.1806C11.1687 24.4534 11.0348 24.704 10.8381 24.9006C10.6415 25.0973 10.3909 25.2312 10.1181 25.2855C9.84531 25.3397 9.56256 25.3119 9.3056 25.2055C9.04864 25.099 8.82902 24.9188 8.6745 24.6875C8.51997 24.4563 8.4375 24.1844 8.4375 23.9062C8.4375 23.5333 8.58566 23.1756 8.84938 22.9119C9.1131 22.6482 9.47079 22.5 9.84375 22.5Z" fill="#000C6E"/>
</svg>
