<svg width="18" height="18" viewBox="0 0 18 18" fill="none" xmlns="http://www.w3.org/2000/svg">
<g clip-path="url(#clip0_27_141)">
<path d="M8.75 0.25C13.5875 0.25 17.5 4.1625 17.5 9C17.5 13.8375 13.5875 17.75 8.75 17.75C3.9125 17.75 0 13.8375 0 9C0 4.1625 3.9125 0.25 8.75 0.25ZM7.15 13.6125C11.025 13.6125 13.15 10.4 13.15 7.6125V7.3375C13.5625 7.0375 13.925 6.6625 14.2 6.2375C13.825 6.4 13.4125 6.5125 12.9875 6.575C13.425 6.3125 13.7625 5.9 13.9125 5.4125C13.5 5.65 13.05 5.825 12.575 5.925C12.1875 5.5125 11.6375 5.2625 11.0375 5.2625C9.875 5.2625 8.925 6.2125 8.925 7.375C8.925 7.5375 8.9375 7.7 8.9875 7.85C7.2375 7.7625 5.675 6.925 4.6375 5.65C4.4625 5.9625 4.35 6.325 4.35 6.7125C4.35 7.4375 4.725 8.0875 5.2875 8.4625C4.9375 8.4625 4.6125 8.3625 4.3375 8.2V8.225C4.3375 9.25 5.0625 10.1 6.025 10.3C5.85 10.35 5.6625 10.375 5.475 10.375C5.3375 10.375 5.2125 10.3625 5.075 10.3375C5.3375 11.175 6.125 11.7875 7.0375 11.8C6.3125 12.3625 5.4 12.7 4.4125 12.7C4.2375 12.7 4.075 12.7 3.9125 12.675C4.8375 13.275 5.95 13.625 7.1375 13.625" fill="#000C6E"/>
</g>
<defs>
<clipPath id="clip0_27_141">
<rect width="17.5" height="17.5" fill="white" transform="translate(0 0.25)"/>
</clipPath>
</defs>
</svg>
