<svg width="20" height="20" viewBox="0 0 20 20" fill="none" xmlns="http://www.w3.org/2000/svg">
<path d="M18.325 5.45583C18.3181 5.09831 18.2894 4.74154 18.2392 4.3875C18.1793 4.07258 18.0776 3.7671 17.9367 3.47917C17.6282 2.87025 17.1338 2.37548 16.525 2.06667C16.2389 1.92643 15.9354 1.82498 15.6225 1.765C15.2658 1.71374 14.9062 1.68451 14.5459 1.6775C14.3934 1.67167 14.1959 1.66917 14.1042 1.66917L5.89752 1.66667C5.80585 1.66667 5.60835 1.66917 5.45585 1.675C5.09833 1.68189 4.74156 1.71055 4.38752 1.76083C4.07261 1.8207 3.76712 1.92244 3.47919 2.06333C2.87031 2.37183 2.37555 2.8663 2.06669 3.475C1.92648 3.7611 1.82504 4.0646 1.76502 4.3775C1.71352 4.73424 1.68402 5.09381 1.67669 5.45417C1.67169 5.60667 1.66835 5.80417 1.66835 5.89583L1.66669 14.1025C1.66669 14.1942 1.66919 14.3917 1.67502 14.5442C1.68191 14.9017 1.71057 15.2585 1.76085 15.6125C1.82073 15.9274 1.92247 16.2329 2.06335 16.5208C2.37185 17.1297 2.86632 17.6245 3.47502 17.9333C3.76112 18.0735 4.06463 18.175 4.37752 18.235C4.73427 18.2863 5.09384 18.3155 5.45419 18.3225C5.60669 18.3283 5.80419 18.3308 5.89585 18.3308L14.1025 18.3325C14.1942 18.3325 14.3917 18.33 14.5442 18.3242C14.9017 18.3173 15.2585 18.2886 15.6125 18.2383C15.9274 18.1784 16.2329 18.0767 16.5209 17.9358C17.13 17.6275 17.6251 17.133 17.9342 16.5242C18.0744 16.2381 18.1759 15.9346 18.2359 15.6217C18.2874 15.2649 18.3169 14.9054 18.3242 14.545C18.3292 14.3925 18.3325 14.195 18.3325 14.1033L18.3334 5.8975C18.3334 5.80583 18.3309 5.60833 18.325 5.45583ZM10.1809 15.7975H10.1784C9.1864 15.7973 8.21031 15.5486 7.33919 15.0742L4.18919 15.9L5.03252 12.8225C4.37956 11.6894 4.11866 10.3726 4.29027 9.07615C4.46187 7.77972 5.0564 6.57611 5.98166 5.65194C6.90693 4.72778 8.11124 4.13468 9.40789 3.96462C10.7045 3.79456 12.0211 4.05703 13.1533 4.71133C14.2856 5.36563 15.1704 6.37522 15.6706 7.58355C16.1707 8.79189 16.2582 10.1315 15.9195 11.3946C15.5808 12.6577 14.8349 13.7738 13.7973 14.5699C12.7598 15.3659 11.4886 15.7974 10.1809 15.7975Z" fill="#000C6E"/>
<path d="M10.1833 4.9175C9.30092 4.91724 8.43453 5.1534 7.67429 5.60141C6.91405 6.04941 6.28771 6.69292 5.86042 7.46499C5.43312 8.23707 5.22047 9.10952 5.24458 9.99162C5.26869 10.8737 5.52868 11.7333 5.99751 12.4808L6.11501 12.6675L5.61585 14.4892L7.48501 13.9992L7.66501 14.1058C8.42592 14.5565 9.29401 14.7942 10.1783 14.7942H10.1808C11.4907 14.7944 12.747 14.2743 13.6733 13.3482C14.5997 12.4222 15.1202 11.1661 15.1204 9.85625C15.1207 8.54641 14.6005 7.29013 13.6745 6.36378C12.7485 5.43743 11.4924 4.91689 10.1825 4.91667L10.1833 4.9175ZM13.0867 11.9758C12.9775 12.1562 12.8321 12.3121 12.6597 12.4335C12.4873 12.555 12.2916 12.6395 12.085 12.6817C11.773 12.7352 11.4529 12.7152 11.15 12.6233C10.8628 12.5338 10.5804 12.4292 10.3042 12.31C9.27895 11.7955 8.4051 11.0233 7.76835 10.0692C7.42099 9.62748 7.21015 9.09398 7.16168 8.53417C7.15768 8.30309 7.20185 8.07372 7.29138 7.86066C7.3809 7.6476 7.51383 7.45552 7.68168 7.29667C7.73129 7.24008 7.79206 7.19436 7.86017 7.16238C7.92829 7.1304 8.00229 7.11285 8.07751 7.11083C8.17585 7.11083 8.27501 7.11083 8.36168 7.11583C8.45335 7.12 8.57501 7.08083 8.69501 7.37083C8.82001 7.6675 9.11668 8.39833 9.15335 8.4725C9.17688 8.51138 9.19035 8.55552 9.19254 8.60092C9.19472 8.64631 9.18554 8.69154 9.16585 8.7325C9.12846 8.82165 9.07851 8.905 9.01751 8.98C8.94251 9.06667 8.86168 9.17333 8.79501 9.24C8.72001 9.31417 8.64335 9.39417 8.72918 9.5425C8.95212 9.92421 9.23042 10.2708 9.55501 10.5708C9.90721 10.884 10.3113 11.1332 10.7492 11.3075C10.8975 11.3825 10.9842 11.3692 11.0708 11.27C11.1575 11.1708 11.4417 10.8367 11.5408 10.6883C11.64 10.54 11.7383 10.565 11.8742 10.6142C12.01 10.6633 12.7408 11.0225 12.8892 11.0975C13.0375 11.1725 13.1367 11.2083 13.1733 11.27C13.214 11.5087 13.1839 11.7541 13.0867 11.9758Z" fill="#000C6E"/>
</svg>
