<svg width="1280" height="645" viewBox="0 0 1280 645" fill="none" xmlns="http://www.w3.org/2000/svg">
<g clip-path="url(#clip0_27_174)">
<mask id="mask0_27_174" style="mask-type:luminance" maskUnits="userSpaceOnUse" x="0" y="0" width="1280" height="645">
<path d="M1280 0H0V645H1280V0Z" fill="white"/>
</mask>
<g mask="url(#mask0_27_174)">
<path d="M608.985 -12.8613C589.962 -17.6382 575.507 -6.83959 560.451 -0.428294C546.318 5.58956 531.509 8.06249 525.182 21.0889C522.61 26.3844 522.015 32.2668 518.199 37.1146C515.383 40.6917 511.036 43.4072 506.776 46.0465C496.302 52.5365 485.828 59.0265 475.354 65.5178C468.54 69.7413 461.563 74.1079 457.289 79.9335C453.016 85.7592 452.021 93.4631 457.194 98.8566C466.214 108.261 485.574 105.028 500.084 108.853C519.006 113.841 528.283 130.683 546.355 137.23C545.13 144.535 545.096 153.71 553.702 157.162C561.34 160.224 570.368 156.535 578.352 154.026C587.617 151.114 598.316 149.824 607.648 152.612C616.981 155.4 624.104 163.139 621.831 170.526C620.012 176.436 612.791 181.974 615.658 187.641C616.914 190.124 619.887 191.855 621.797 194.091C633.097 207.329 606.435 226.579 632.161 233.673C651.428 238.985 674.794 234.19 690.731 247.298C706.222 260.039 698.559 282.061 685.45 294.174C672.178 306.439 647.875 299.308 635.954 313.595C633.894 316.064 632.627 318.872 630.569 321.342C623.35 330.008 608.341 332.705 598.238 339.527C584.078 349.086 581.455 365.218 569.586 376.418C561.91 383.663 550.91 388.345 541.182 394.007C531.454 399.668 522.334 407.23 521.322 416.478C520.496 424.023 525.587 431.059 525.266 438.489C524.902 446.897 520.946 453.146 522.476 462.057C522.952 464.833 523.732 467.742 526.191 469.836C529.338 472.515 534.403 473.217 538.709 474.717C556.648 480.97 560.812 500.818 579.023 506.604C588.793 509.707 601.344 508.217 608.884 513.846C615.207 518.567 614.958 526.685 610.642 532.557C606.324 538.429 598.861 542.542 591.505 546.315C550.118 567.545 504.632 584.201 456.94 595.592C453.844 596.331 450.454 597.044 447.425 596.162C441.917 594.558 441.068 589.085 438.255 585.162C433.471 578.486 422.117 576.12 412.093 576.6C402.07 577.08 392.388 579.703 382.365 580.185C347.636 581.853 320.995 558.929 293.941 542.384C271.536 528.682 245.47 518.414 217.778 512.379C212.074 511.135 205.848 509.848 202.301 506.249C197.383 501.26 199.741 494.292 199.226 488.083C198.362 477.697 187.805 468.193 174.423 465.752C167.487 464.488 160.234 464.978 153.108 464.703C122.761 463.53 89.8765 448.938 64.3721 461.427C57.8407 464.624 52.2684 469.511 44.5867 470.447C38.7533 471.158 32.9438 469.401 27.4927 467.679C2.72044 459.854 -22.0501 452.029 -46.8224 444.205" stroke="#444444" stroke-width="3" stroke-miterlimit="10"/>
<path d="M1309.14 363.562C1291.93 364.452 1276.9 355.568 1260.77 350.97C1241.51 345.483 1220.33 346.117 1199.84 344.688C1149.01 341.144 1100.25 324.563 1049.21 325.325C1008.6 325.931 969.542 337.581 934.065 352.544C916.784 359.833 899.79 368.152 887.368 379.797C868.308 397.662 862 422.863 871.11 444.756C880.22 466.65 904.477 484.583 933.635 490.986C962.78 497.384 993.934 492.661 1024.26 493.616C1054.58 494.57 1088.91 504.491 1097.49 526.494C1099.08 530.586 1099.71 534.954 1102.4 538.704C1106.74 544.759 1115.55 548.049 1123.89 550.827C1140.47 556.354 1158.49 561.448 1176.33 558.997C1193.03 556.701 1206.87 548.153 1222.37 542.917C1252.6 532.708 1290.1 536.141 1316.23 551.508" stroke="#444444" stroke-width="3" stroke-miterlimit="10"/>
<path d="M1024.51 -15.8091C1009.43 -3.71404 993.379 8.03657 982.617 22.5323C971.853 37.028 967.011 55.128 975.829 70.3565C984.646 85.581 1006.47 98.2398 1002.68 114.61C1001.46 119.894 997.533 124.664 996.434 129.962C994.504 139.267 1001.85 148.565 1011.86 154.173C1021.87 159.779 1034.19 162.401 1046.25 164.777C1065.09 168.488 1084.76 171.889 1103.86 169.057C1122.96 166.225 1141.38 155.468 1143.78 140.867C1144.9 134.039 1142.51 127.149 1142.83 120.273C1143.15 113.397 1147.5 105.691 1156.31 103.967C1163.62 102.538 1171.95 105.656 1178.67 103.053C1188.46 99.2563 1185.55 88.0811 1190.23 80.5513C1196.31 70.7925 1214.44 69.1916 1227.83 72.921C1241.22 76.6504 1252.35 84.0576 1265.63 87.9998C1282.32 92.9547 1301.95 91.8853 1317.53 85.1708" stroke="#444444" stroke-width="3" stroke-miterlimit="10"/>
<path d="M1296.39 383.861C1267.27 374.188 1235.2 371.092 1203.65 368.1C1179.29 365.791 1154.94 363.482 1130.59 361.173C1101.37 358.402 1071.84 355.627 1042.54 357.854C1012.88 360.107 983.931 367.549 958.604 379.431C943.311 386.606 928.958 395.727 920.789 407.851C912.621 419.975 911.713 435.546 922.051 446.684C928.178 453.287 937.578 457.782 947.4 460.932C971.86 468.779 999.177 469.106 1025.53 471.692C1051.88 474.28 1079.67 480.082 1096.68 495.515C1106.25 504.198 1111.67 515.346 1122.52 523.118C1145.6 539.646 1182.77 534.906 1212.97 527.409C1243.18 519.91 1276.97 510.839 1305.4 521.597" stroke="#444444" stroke-miterlimit="10"/>
<path d="M1168.58 420.468C1161.43 420.666 1154.03 421.523 1148.13 424.578C1142.23 427.631 1138.28 433.371 1140.36 438.544C1142.48 443.819 1149.9 446.86 1157.05 447.943C1164.2 449.027 1171.66 448.729 1178.71 450.134C1192.13 452.808 1203.29 461.466 1217.17 461.45C1241.35 461.421 1246.76 438.63 1228.88 428.771C1215.42 421.355 1184.07 420.038 1168.58 420.468Z" stroke="#444444" stroke-miterlimit="10"/>
<path d="M1203.11 400.76C1178.33 395.206 1155.56 393.802 1130.21 398.078C1104.81 402.364 1079.19 421.861 1094.71 442.28C1105.54 456.537 1127.12 460.335 1146.13 465.437C1161.25 469.493 1172.04 477.228 1186.13 482.278C1206.78 489.677 1232.24 487.168 1251.93 479.203C1268.23 472.607 1288.75 456.112 1282.74 440.792C1277.17 426.558 1253.5 416.176 1237.03 410.266C1226.12 406.352 1214.67 403.352 1203.11 400.76Z" stroke="#444444" stroke-miterlimit="10"/>
<path d="M1301.23 412.978C1264 400.132 1226.08 387.969 1186.22 380.956C1146.35 373.944 1104.19 372.258 1064.69 380.344C1049.39 383.474 1034.24 388.223 1022.78 396.497C1011.32 404.771 1004.1 417.085 1007.1 428.846C1010.09 440.541 1022.46 449.76 1036.29 455.478C1050.11 461.197 1065.59 464.116 1080.41 468.181C1095.22 472.246 1110.02 477.831 1119.54 487.327C1123.06 490.844 1125.78 494.818 1129.63 498.131C1139.93 506.976 1156.93 509.759 1172.45 508.669C1187.97 507.58 1202.7 503.217 1217.67 499.933C1247.5 493.389 1278.94 491.076 1309.88 493.148" stroke="#444444" stroke-miterlimit="10"/>
<path d="M1035.56 -7.88965C1020.44 -0.110948 1007.21 10.3226 1000.39 23.1478C993.56 35.9716 993.859 51.3523 1003.75 62.9778C1009.44 69.6587 1017.93 74.8587 1022.89 81.8621C1029.19 90.7579 1029.02 101.398 1028.02 111.46C1027.44 117.318 1026.71 123.536 1030.25 128.765C1033.65 133.79 1040.4 136.977 1047.12 139.435C1056.77 142.964 1067.43 145.547 1078.09 144.675C1090.68 143.644 1102.34 137.487 1107.95 128.902C1112.18 122.424 1113.01 115.028 1115.36 108.023C1117.71 101.02 1122.32 93.7675 1130.97 90.6999C1136.22 88.841 1142.32 88.7623 1147.58 86.9331C1164.85 80.9333 1163.9 60.8467 1178.8 51.9302C1188.85 45.9163 1203.47 46.7328 1215.47 50.1397C1227.47 53.5466 1238.25 59.1646 1250.41 62.2115C1270.32 67.1974 1293.28 64.5864 1310.37 55.3926" stroke="#444444" stroke-miterlimit="10"/>
<path d="M1075.66 -7.86273C1065.97 -4.03659 1057.03 0.874438 1049.22 6.6588C1037.81 15.1199 1028.41 27.1788 1032.62 38.8404C1035.97 48.1362 1047.18 54.8738 1050.75 64.1231C1052.66 69.0625 1052.22 74.3374 1053.39 79.4058C1054.56 84.4742 1058.04 89.8148 1064.49 91.4737C1067.08 92.1419 1069.93 92.1342 1072.6 91.6595C1085.64 89.3375 1091.02 77.7468 1100.85 70.8608C1109.17 65.0261 1120.72 62.6616 1130.08 57.8008C1144.09 50.5201 1152.21 37.9323 1154.36 25.1819C1156.5 12.4315 1153.24 -0.521341 1148.21 -12.7996" stroke="#444444" stroke-miterlimit="10"/>
<path d="M1178.01 -8.35278C1177.93 10.3922 1193.48 28.6625 1216.08 36.3857C1229.11 40.8388 1243.66 41.9056 1257.93 42.6358C1273.36 43.4265 1289.81 43.7219 1303.19 37.8421" stroke="#444444" stroke-miterlimit="10"/>
<path d="M1214.57 -10.1626C1214 -2.61997 1221.4 4.02224 1229.76 8.16314C1241.36 13.9088 1255.38 16.4527 1269.24 16.6771C1283.11 16.9016 1296.89 14.9124 1310.28 12.1776" stroke="#444444" stroke-miterlimit="10"/>
<path d="M1099.84 -7.48206C1099.96 -0.626996 1092.19 4.5988 1087.81 10.6012C1084.95 14.5241 1083.49 18.9397 1082.42 23.3464C1080.94 29.4016 1080.79 36.7907 1087.38 40.4105C1091.82 42.8486 1098.14 42.6086 1103 40.6878C1107.87 38.767 1111.49 35.4337 1114.43 31.9352C1126.04 18.1554 1128.79 0.323735 1121.7 -15.106" stroke="#444444" stroke-miterlimit="10"/>
<path d="M-23.2397 138.147C-16.8141 145.262 -7.58273 150.641 1.88928 155.429C33.0598 171.188 69.1422 181.96 106.557 183.868C143.973 185.775 182.685 178.394 212.453 161.155C226.481 153.03 238.462 142.843 253.643 136.003C277.741 125.147 306.98 123.899 334.561 120.024C362.144 116.149 391.649 107.781 404.661 88.9945C410.385 80.732 412.445 70.999 420.028 63.6421C430.795 53.197 450.022 49.9939 462.73 40.8788C474.612 32.357 479.43 19.7383 488.605 9.48147C499.318 -2.49489 516.337 -11.1508 535.05 -14.1384" stroke="#444444" stroke-miterlimit="10"/>
<path d="M-23.4018 122.194C-17.7715 128.359 -9.78092 133.062 -1.57015 137.26C25.443 151.069 56.7398 160.556 89.2296 162.455C121.719 164.354 155.223 158.158 181.542 143.826C185.825 141.494 189.976 138.996 193.998 136.34C201.96 131.083 209.289 125.456 217.856 121.079C221.281 119.338 224.835 117.823 228.524 116.505C244.06 110.93 262.064 108.895 279.692 106.737C282.916 106.342 286.128 105.941 289.321 105.509C303.471 103.59 318.158 100.548 330.487 95.193C339.76 91.1604 347.67 85.8095 352.978 78.7738C358.424 71.5666 360.745 63.0462 367.566 56.4426C377.254 47.0682 393.788 43.6059 404.601 35.1705C408.933 31.7933 412.139 27.7827 414.962 23.567C418.727 17.9516 421.83 11.9583 426.127 6.61252C434.901 -4.34087 448.973 -12.5156 465.26 -15.7974" stroke="#444444" stroke-miterlimit="10"/>
<path d="M-23.5623 106.239C-18.7256 111.454 -11.9757 115.483 -5.02956 119.087C17.8261 130.948 44.3375 139.148 71.9019 141.038C99.4645 142.928 127.799 137.938 150.629 126.492C154.491 124.556 158.305 122.521 161.903 120.197C169.03 115.594 175.002 110.348 182.065 106.147C184.876 104.477 187.812 103.001 190.903 101.701C203.933 96.1693 219.916 93.9737 235.537 92.0516C238.394 91.7007 241.244 91.3524 244.077 90.986C256.649 89.3581 269.67 86.9432 280.765 82.463C289.085 79.0935 296.27 74.5424 301.292 68.5452C306.459 62.3945 309.04 55.0853 315.102 49.2365C323.709 40.9328 337.55 37.2098 346.469 29.4569C350.041 26.3558 352.659 22.7386 354.908 18.9537C357.908 13.9214 360.293 8.56924 363.645 3.7369C370.481 -6.19352 381.606 -13.8884 395.464 -17.4617" stroke="#444444" stroke-miterlimit="10"/>
<path d="M-23.7244 90.2857C-19.6813 94.5517 -14.1722 97.9058 -8.49069 100.917C10.2076 110.828 31.9334 117.742 54.5724 119.624C77.2096 121.506 100.427 117.758 119.714 109.162C123.162 107.626 126.635 106.051 129.806 104.059C136.096 100.11 140.72 95.2535 146.275 91.221C148.473 89.6252 150.793 88.1895 153.279 86.9008C163.826 81.4363 177.768 79.055 191.38 77.3702C193.87 77.0619 196.357 76.7691 198.832 76.4672C209.826 75.1308 221.181 73.3429 231.042 69.7373C238.411 67.0309 244.867 63.2783 249.603 58.3195C254.493 53.2253 257.335 47.1275 262.636 42.0333C270.162 34.8015 281.308 30.818 288.334 23.7449C291.147 20.9186 293.176 17.6936 294.854 14.3421C297.091 9.89292 298.769 5.18571 301.162 0.864213C306.087 -8.0355 314.237 -15.2582 325.668 -19.123" stroke="#444444" stroke-miterlimit="10"/>
<path d="M-23.8865 74.3311C-20.637 77.6464 -16.3686 80.3257 -11.9501 82.7457C2.59072 90.7076 19.5311 96.3359 37.2446 98.2103C54.9564 100.083 73.1375 97.6388 88.803 91.8312C91.8494 90.7025 94.9658 89.5789 97.7118 87.9199C103.168 84.6253 106.443 80.1632 110.488 76.2932C112.077 74.7735 113.775 73.3713 115.659 72.1007C123.706 66.6788 135.622 64.1375 147.227 62.6888C149.349 62.4244 151.474 62.1844 153.59 61.9484C163.005 60.9022 172.696 59.7412 181.32 57.0128C187.737 54.9695 193.466 52.0167 197.917 48.0951C202.528 44.0561 205.631 39.1708 210.171 34.8313C216.617 28.6702 225.07 24.4274 230.202 18.0342C232.255 15.4826 233.696 12.6523 234.8 9.73175C236.273 5.86562 237.235 1.79825 238.679 -2.00725C241.669 -9.88657 246.869 -16.6255 255.872 -20.7832" stroke="#444444" stroke-miterlimit="10"/>
<path d="M-24.0486 58.3777C-21.5928 60.7435 -18.5668 62.7469 -15.4112 64.5748C-5.02955 70.5888 7.12703 74.9296 19.9134 76.795C32.698 78.6603 45.9435 77.6425 57.8867 74.5001C60.5491 73.7996 63.2934 73.1069 65.6128 71.7808C70.2344 69.1401 72.1698 65.0766 74.6957 61.3666C75.677 59.9257 76.7488 58.5518 78.0339 57.3018C83.572 51.916 93.4724 49.2212 103.071 48.0086C104.825 47.7868 106.586 47.601 108.346 47.4307C116.185 46.6748 124.208 46.142 131.598 44.2883C137.064 42.908 142.065 40.7537 146.231 37.8718C150.562 34.8893 153.926 31.2154 157.706 27.6305C163.072 22.5402 168.832 18.0381 172.07 12.3259C173.363 10.0491 174.215 7.61228 174.746 5.12258C175.456 1.83953 175.694 -1.58929 176.196 -4.8775C177.242 -11.7377 179.502 -17.9929 186.076 -22.4421" stroke="#444444" stroke-miterlimit="10"/>
<path d="M-24.2108 42.4241C-11.6156 53.1595 8.12202 58.8458 26.9756 57.1701C29.2659 56.9663 31.6245 56.6361 33.5189 55.6428C38.7567 52.8951 37.9204 46.9365 40.4139 42.5015C43.4244 37.1454 51.3263 34.3023 58.9175 33.327C66.5071 32.3518 74.3441 32.762 81.8773 31.5636C100.466 28.6069 114.987 14.8684 114.695 0.51202C114.526 -7.87169 110.167 -17.1094 116.284 -24.1038" stroke="#444444" stroke-miterlimit="10"/>
<path d="M-54.6748 395.919C-38.2891 411.723 -19.101 428.77 7.27894 431.131C28.8683 433.063 49.8057 424.453 71.5418 424.108C92.4245 423.778 112.15 431.054 132.821 433.316C161.679 436.473 191.445 429.529 215.634 417.222C257.133 396.109 283.255 358.741 282.95 320.93C282.841 307.473 279.631 293.87 283.006 280.658C285.537 270.753 291.647 261.608 295.869 252.039C303.773 234.129 304.949 214.553 299.226 196.175C297.634 191.061 295.385 185.857 290.666 181.998C282.028 174.936 267.174 174.245 255.113 177.313C243.052 180.381 232.841 186.473 222.095 191.624C178.789 212.386 125.525 218.127 74.2724 216.79C58.3612 216.374 42.2844 215.297 27.2367 211.369C6.95638 206.074 -10.3561 195.914 -27.2589 185.925C-34.5498 181.617 -43.6326 180.007 -52.7241 181.317C-61.8155 182.628 -69.8573 186.597 -76.9519 191.09C-104.571 208.585 -121.097 235.671 -120.771 262.907C-120.637 274.09 -117.827 285.158 -114.359 296.031C-103.281 330.773 -83.8383 367.791 -54.6748 395.919Z" stroke="#444444" stroke-miterlimit="10"/>
<path d="M43.3306 232.004C26.9875 228.276 12.4809 221.065 -1.66571 213.777C-7.72779 210.654 -15.1142 209.523 -22.5195 210.603C-29.9418 211.686 -36.5756 214.77 -42.4841 218.26C-65.7033 231.894 -80.3482 252.972 -81.1622 274.987C-81.4592 283.972 -79.5819 292.986 -76.9929 302.001C-67.6676 329.214 -52.6353 358.392 -29.6192 380.575C-16.5956 393.125 -1.19126 406.429 19.7103 408.486C36.8179 410.17 53.5023 403.792 70.7618 403.429C87.8182 403.028 103.83 407.997 120.497 409.091C143.715 410.643 167.514 404.411 187.336 394.497C220.211 377.949 241.859 349.547 243.023 320.116C243.429 309.648 241.399 299.076 244.212 288.808C246.371 281.046 251.129 273.863 254.397 266.373C260.55 252.244 261.289 236.921 256.592 222.575C255.285 218.584 253.467 214.532 249.778 211.495C243.036 205.947 231.578 205.199 222.172 207.293C212.786 209.397 204.749 213.79 196.282 217.5C162.268 232.493 120.399 236.546 80.2065 235.742C67.7171 235.493 55.1578 234.701 43.3306 232.004Z" stroke="#444444" stroke-miterlimit="10"/>
<path d="M59.4227 252.64C46.9845 250.492 35.3331 246.215 23.9275 241.63C19.101 239.69 13.4042 239.04 7.68513 239.89C1.93025 240.746 -3.28362 242.956 -8.01791 245.432C-26.7947 255.252 -39.6766 270.269 -41.5556 287.068C-42.3151 293.852 -41.3389 300.815 -39.6271 307.973C-32.058 327.658 -21.434 348.995 -4.56533 365.233C5.09611 374.53 16.7168 384.091 32.14 385.844C44.7642 387.28 57.2007 383.17 69.9802 382.752C83.2137 382.319 95.5085 384.943 108.17 384.869C125.749 384.817 143.616 379.336 159.036 371.774C183.344 359.853 200.46 340.355 203.095 319.302C204.017 311.821 203.131 304.275 205.418 296.959C207.176 291.335 210.613 286.12 212.927 280.708C217.33 270.361 217.631 259.29 213.958 248.978C212.937 246.11 211.548 243.209 208.889 240.994C204.044 236.962 195.978 236.141 189.232 237.272C182.516 238.399 176.647 241.091 170.47 243.375C145.71 252.536 115.273 254.965 86.1406 254.693C77.0731 254.611 68.009 254.122 59.4227 252.64Z" stroke="#444444" stroke-miterlimit="10"/>
<path d="M75.5166 273.276C66.9184 272.756 58.2212 271.345 49.5224 269.484C45.9469 268.719 41.9243 268.557 37.8897 269.177C33.804 269.806 29.9981 271.131 26.4499 272.603C12.0678 278.57 1.06667 287.564 -1.9473 299.148C-3.14026 303.73 -3.09247 308.643 -2.25962 313.945C3.55499 326.1 9.76897 339.599 20.4902 349.888C26.7913 355.932 34.6266 361.75 44.5713 363.199C52.7121 364.388 60.899 362.511 69.1985 362.072C78.6074 361.574 87.1834 361.866 95.8447 360.643C107.778 358.959 119.69 354.225 130.738 349.048C146.423 341.698 159.063 331.16 163.168 318.487C164.606 313.994 164.893 309.476 166.624 305.108C168.004 301.624 170.095 298.373 171.455 295.041C174.107 288.475 173.971 281.659 171.324 275.376C170.59 273.631 169.631 271.883 168.003 270.49C165.053 267.972 160.387 267.089 156.293 267.251C152.253 267.409 148.557 268.4 144.66 269.25C129.202 272.62 110.148 273.383 92.0764 273.643C86.429 273.729 80.8175 273.596 75.5166 273.276Z" stroke="#444444" stroke-miterlimit="10"/>
<path d="M35.1096 319.917C39.1697 324.545 40.9737 330.203 45.5475 334.546C50.8928 339.623 59.9262 342.327 68.422 341.395C81.5531 339.952 90.7606 331.082 102.443 326.325C109.45 323.471 117.67 321.967 123.244 317.673C145.208 300.749 111.538 287.674 91.6105 293.911C72.1408 300.006 35.3963 297.666 35.1096 319.917Z" stroke="#444444" stroke-miterlimit="10"/>
<path d="M500.61 146.228C509.507 154.039 514.693 163.873 522.819 172.149C530.944 180.426 543.956 187.432 557.336 185.447C561.051 184.896 564.712 183.665 568.47 184.017C574.921 184.621 579.019 189.572 580.939 194.266C585.692 205.887 582.927 218.407 583.898 230.547C584.87 242.688 591.64 256.264 606.868 260.193C613.519 261.91 621.31 261.634 626.801 264.95C636.855 271.025 631.281 283.592 622.295 290.558C609.524 300.458 592.102 306.132 578.113 315.042C558.467 327.557 546.661 345.71 528.792 359.664C508.425 375.568 480.14 385.537 450.929 387.106C421.717 388.674 391.852 381.827 368.717 368.258C353.929 359.585 342.038 348.438 330.921 337.056C326.955 332.995 322.961 328.706 321.79 323.737C320.758 319.352 322.031 314.861 323.436 310.535C327.683 297.458 333.196 284.617 339.915 272.146C343.728 265.07 347.979 257.973 349.027 250.373C350.119 242.457 347.663 234.541 345.59 226.738C339.907 205.347 337.591 181.515 353.386 163.253C380.607 131.784 464.521 114.543 500.61 146.228Z" stroke="#444444" stroke-miterlimit="10"/>
<path d="M385.584 191.516C403.741 167.318 463.64 154.365 491.72 175.619C498.601 180.828 502.973 187.486 509.274 193.157C515.632 198.837 525.189 203.727 534.885 202.72C537.593 202.438 540.264 201.686 542.973 202.055C547.99 202.739 551.323 206.526 553.119 210.147C556.776 217.52 556.621 225.556 556.674 233.567C556.687 235.324 556.718 237.05 556.791 238.745C557.223 248.788 560.104 258.564 568.52 262.036C572.242 263.571 576.464 263.931 579.685 266.496C585.561 271.176 581.987 279.518 575.732 284.502C566.839 291.588 554.938 295.904 545.376 302.393C539.042 306.688 533.891 311.825 528.939 317.106C523.387 323.029 518.074 329.143 511.613 334.47C497.674 345.957 478.338 353.314 458.11 355.207C437.473 357.138 415.536 353.315 398.563 343.611C387.488 337.312 379.008 328.756 371.545 320.116C368.882 317.051 366.249 313.836 365.52 310.169C364.877 306.932 365.788 303.626 366.787 300.431C367.997 296.559 369.343 292.714 370.796 288.898C372.968 283.187 375.373 277.547 378.025 271.998C380.534 266.744 383.297 261.477 383.899 255.875C384.527 250.041 382.766 244.206 381.252 238.446C377.1 222.653 375.253 205.282 385.584 191.516Z" stroke="#444444" stroke-miterlimit="10"/>
<path d="M417.782 219.78C426.813 202.785 462.705 194.194 482.83 205.011C487.683 207.619 491.233 211.116 495.73 214.163C500.303 217.263 506.429 220.028 512.433 219.99C514.137 219.98 515.816 219.726 517.473 220.091C521.064 220.88 523.626 223.48 525.297 226.025C528.703 231.211 529.567 237.118 529.674 243.076C529.7 244.418 529.703 245.705 529.683 246.942C529.546 254.89 528.435 260.779 530.169 263.877C530.908 265.198 532.152 265.87 532.567 268.038C535.171 270.623 532.692 275.442 529.167 278.441C524.151 282.713 517.774 285.672 512.637 289.738C509.235 292.426 506.455 295.545 503.786 298.729C500.789 302.308 497.915 305.991 494.433 309.27C486.926 316.339 476.506 321.136 465.29 323.302C453.188 325.639 439.24 324.773 428.406 318.958C421.062 315.015 416 309.06 412.165 303.168C410.817 301.096 409.535 298.959 409.247 296.593C408.992 294.506 409.54 292.385 410.136 290.317C410.854 287.815 411.645 285.324 412.443 282.847C413.64 279.138 414.858 275.465 416.131 271.84C417.338 268.409 418.609 264.971 418.768 261.367C418.934 257.613 417.865 253.859 416.91 250.143C414.293 239.958 412.875 229.01 417.782 219.78Z" stroke="#444444" stroke-miterlimit="10"/>
<path d="M449.978 248.043C450.531 257.701 455.33 267.18 454.089 276.801C453.683 279.948 452.632 283.065 452.785 286.225C452.939 289.386 454.601 292.758 458.249 294.308C462.896 296.285 469.055 294.495 472.468 291.401C475.882 288.305 477.244 284.245 478.631 280.354C480.019 276.464 481.666 272.42 485.449 269.582C493.833 263.294 503.117 263.169 502.676 252.587C502.434 246.767 498.365 241.233 491.974 238.13C478.641 231.658 449.104 232.77 449.978 248.043Z" stroke="#444444" stroke-miterlimit="10"/>
<path d="M283.424 412.269C273.084 423.237 263.934 434.847 256.096 446.944C253.024 451.683 250.097 456.682 250.049 461.959C249.936 474.333 264.909 483.349 278.409 490.348C301.256 502.196 324.105 514.043 346.952 525.89C359.006 532.141 371.71 538.581 386.239 539.811C401.23 541.079 417.323 536.708 431.027 541.472C436.83 543.49 441.525 546.968 447.102 549.322C466.377 557.457 490.573 550.5 509.3 541.666C517.047 538.013 525.332 532.982 525.503 526.081C525.687 518.614 516.149 513.125 506.887 510.521C497.625 507.918 487.255 506.673 479.867 501.713C465.882 492.326 469.613 475.588 466.799 461.612C463.167 443.581 446.824 428.148 427.122 417.617C406.688 406.693 377.609 393.973 353.886 387.569C325.094 379.799 299.209 395.524 283.424 412.269Z" stroke="#444444" stroke-miterlimit="10"/>
<path d="M311.25 436.585C306.391 443.031 301.606 449.502 298.141 456.261C296.783 458.91 295.439 461.675 295.796 464.542C296.694 471.779 306.371 476.567 314.882 480.426C329.199 486.938 343.409 493.75 357.412 500.827C364.8 504.56 372.439 508.522 380.95 509.827C389.425 511.126 398.452 509.54 406.458 512.338C409.866 513.528 412.747 515.396 416.08 516.653C427.6 520.992 441.738 517.192 452.739 511.997C457.815 509.598 462.834 506.389 463.573 502.171C464.386 497.53 460.027 493.76 455.462 491.415C450.917 489.08 445.53 487.405 441.405 483.891C433.683 477.312 434.109 467.137 430.86 458.745C428.636 453.003 424.426 447.843 419.144 443.515C414.384 439.614 408.475 436.159 402.033 433.354C388.079 427.258 369.142 420.709 353.69 418.11C335.326 415.017 320.056 424.9 311.25 436.585Z" stroke="#444444" stroke-miterlimit="10"/>
<path d="M339.074 460.902C338.927 463.12 339.582 465.468 341.542 467.125C343.974 469.182 347.829 469.786 351.355 470.502C360.197 472.297 368.534 475.5 375.665 479.843C377.656 481.055 379.585 482.37 381.894 483.201C386.396 484.821 391.962 484.332 396.182 482.326C412.561 474.538 400.548 455.708 386.306 451.268C371.818 446.749 340.192 444.099 339.074 460.902Z" stroke="#444444" stroke-miterlimit="10"/>
<path d="M-20.7411 479.979C-2.83477 497.065 31.3651 496.406 59.747 492.546C88.1289 488.685 119.953 483.696 143.785 495.969C162.144 505.423 170.499 522.827 187.264 533.845C204.889 545.426 229.487 548.566 249.673 557.442C282.341 571.808 305.889 601.741 343.67 602.458C354.444 602.663 365.146 600.286 375.892 600.922C393.016 601.936 407.591 610.318 423.555 615.109C459.158 625.796 499.983 618.022 534.294 605.143C568.605 592.263 599.596 574.459 635.083 563.551C670.57 552.642 713.701 549.693 745.274 566.092C796.413 592.654 791.354 652.683 831.532 688.421" stroke="#444444" stroke-miterlimit="10"/>
<path d="M471.672 657.592C508.194 638.849 545.975 621.506 584.817 605.651C607.268 596.487 630.552 587.698 655.756 584.687C680.96 581.676 708.714 585.229 727.533 598.254C742.277 608.458 749.937 623.089 757.127 637.188C760.818 644.427 764.512 651.665 768.203 658.905" stroke="#444444" stroke-miterlimit="10"/>
<path d="M542.362 658.973C558.269 650.254 574.177 641.536 590.087 632.819C602.284 626.134 614.641 619.382 628.625 615.143C642.609 610.904 658.616 609.373 672.736 613.347C695.897 619.867 707.941 638.702 717.732 655.854" stroke="#444444" stroke-miterlimit="10"/>
<path d="M-25.373 516.96C-3.00032 524.612 22.9376 520.55 47.0323 516.97C71.1287 513.389 97.9115 510.772 118.709 520.64C125.957 524.078 131.924 528.819 138.129 533.272C150.948 542.469 165.035 550.59 179.091 558.69C187.897 563.765 196.801 568.884 206.894 572.328C213.089 574.442 219.655 575.896 225.811 578.073C251.831 587.276 268.186 608.421 294.852 616.497C320.521 624.272 351.836 618.645 375.281 629.728C391.596 637.441 400.369 651.7 405.408 665.738" stroke="#444444" stroke-miterlimit="10"/>
<path d="M-27.9177 536.223C-8.38145 542.494 14.1346 539.099 35.1164 536.151C47.9368 534.35 61.5919 532.867 74.4328 533.876C82.6078 534.518 90.4567 536.174 97.5496 539.415C103.9 542.315 109.182 546.306 114.662 550.064C125.988 557.828 138.358 564.726 150.666 571.654C158.387 575.998 166.175 580.399 174.932 583.43C180.308 585.29 185.982 586.608 191.305 588.541C199.245 591.421 206.16 595.565 212.775 600.056C224.898 608.287 235.989 617.664 250.696 622.474C257.94 624.844 265.704 625.987 273.596 626.806C289.539 628.458 306.005 628.787 319.602 635.288C333.747 642.051 341.675 654.207 346.534 666.097" stroke="#444444" stroke-miterlimit="10"/>
<path d="M-30.4606 555.486C-13.7626 560.376 5.33503 557.648 23.2038 555.331C34.1282 553.916 45.7199 552.775 56.6562 553.637C63.6075 554.184 70.3027 555.549 76.3955 558.187C81.8466 560.549 86.4461 563.789 91.1991 566.853C101.031 573.183 111.686 578.858 122.245 584.615C128.882 588.228 135.554 591.911 142.973 594.526C147.528 596.131 152.311 597.315 156.803 599.001C163.5 601.515 169.351 605.065 174.928 608.926C185.141 615.993 194.384 624.05 206.544 628.443C212.533 630.607 218.945 631.789 225.483 632.698C238.689 634.533 252.419 635.253 263.929 640.84C275.903 646.654 282.986 656.705 287.665 666.447" stroke="#444444" stroke-miterlimit="10"/>
<path d="M-33.0035 574.748C-19.1437 578.258 -3.46623 576.195 11.2896 574.51C20.3179 573.482 29.8462 572.685 38.8779 573.398C44.6055 573.851 50.147 574.922 55.238 576.96C59.7914 578.784 63.7065 581.275 67.7342 583.644C76.0713 588.54 85.0108 592.992 93.8223 597.577C99.3741 600.46 104.929 603.424 111.012 605.624C114.746 606.975 118.641 608.023 122.301 609.464C127.756 611.611 132.541 614.569 137.081 617.799C145.384 623.701 152.781 630.438 162.391 634.414C167.125 636.375 172.184 637.594 177.369 638.594C187.839 640.607 198.832 641.721 208.253 646.396C218.057 651.26 224.295 659.207 228.792 666.802" stroke="#444444" stroke-miterlimit="10"/>
<path d="M-35.5464 594.01C-24.5231 596.14 -12.2658 594.743 -0.624636 593.689C6.50752 593.047 13.9725 592.594 21.0995 593.159C25.6034 593.516 29.993 594.295 34.0804 595.731C37.7361 597.017 40.9685 598.757 44.2675 600.432C51.1113 603.894 58.3339 607.123 65.3961 610.538C69.8641 612.689 74.3032 614.935 79.0477 616.721C81.9627 617.817 84.9664 618.73 87.7944 619.926C92.0064 621.706 95.7269 624.072 99.229 626.67C105.62 631.409 111.171 636.825 118.233 640.384C121.713 642.14 125.418 643.398 129.248 644.488C136.98 646.683 145.236 648.188 152.571 651.949C160.205 655.864 165.598 661.707 169.914 667.154" stroke="#444444" stroke-miterlimit="10"/>
<path d="M-38.0911 613.272C-29.9059 614.022 -21.0671 613.29 -12.5406 612.869C-7.30453 612.612 -1.90464 612.502 3.31947 612.92C6.59968 613.182 9.83552 613.668 12.9229 614.504C15.6809 615.251 18.2289 616.243 20.8026 617.222C26.153 619.251 31.6587 621.257 36.9732 623.499C40.3558 624.921 43.6787 626.448 47.0869 627.818C49.181 628.661 51.2956 629.439 53.2907 630.388C56.2603 631.801 58.9158 633.574 61.3803 635.542C65.862 639.116 69.5637 643.213 74.0779 646.356C76.3034 647.906 78.6534 649.203 81.1315 650.383C86.1286 652.759 91.6463 654.655 96.8943 657.504C102.357 660.47 106.906 664.208 111.041 667.508" stroke="#444444" stroke-miterlimit="10"/>
<path d="M-40.634 632.535C-31.9881 631.514 -23.1595 631.974 -14.4589 632.683C-0.486405 633.822 14.708 636.147 23.5281 644.416C27.3698 648.017 29.6124 652.433 33.0138 656.28C37.6286 661.499 44.416 665.605 52.166 667.864" stroke="#444444" stroke-miterlimit="10"/>
<path d="M566.135 24.2377C559.609 31.3417 557.177 40.3395 549.929 47.0307C540.894 55.3706 526.07 58.6678 515.109 65.5642C512.947 66.9251 510.887 68.4796 509.788 70.4365C507.085 75.2469 511.051 80.8455 516.395 84.1621C529.237 92.1343 549.366 92.0053 559.964 101.68C564.541 105.857 566.601 111.304 570.778 115.714C584.997 130.726 615.547 127.952 637.146 136.573C648.694 141.183 657.659 149.357 661.512 158.789C667.646 173.802 662.484 193.003 678.511 203.008C682.972 205.794 688.541 207.369 694.139 208.475C712.426 212.093 732.255 211.094 749.747 205.676C760.892 202.224 770.959 197.091 781.037 192.105C800.582 182.436 821.214 172.982 844.314 170.348C875.109 166.837 908.436 175.659 936.799 165.933C963.127 156.905 977.097 131.357 966.888 110.914C959.932 96.9847 943.822 86.2403 938.643 71.8748C933.567 57.8009 939.957 42.7802 948.948 29.8737C957.938 16.966 969.614 5.05155 976.316 -8.62761C977.473 -10.9896 978.468 -13.6496 977.169 -15.9703C976.387 -17.3674 974.868 -18.4432 973.37 -19.4533C938.612 -42.9094 892.36 -55.5127 845.863 -57.796C799.367 -60.0806 752.636 -52.5057 709.403 -39.3722C693.876 -34.6559 679.241 -29.0561 668.204 -19.3527C659.282 -11.5095 650.943 -5.69286 638.012 -1.5855C614.221 5.97002 582.129 6.82917 566.135 24.2377Z" stroke="#444444" stroke-miterlimit="10"/>
<path d="M724.033 -21.3806C711.851 -17.6796 700.29 -13.3336 691.4 -5.91608C684.261 0.0695188 677.545 4.53163 667.382 7.71535C648.579 13.5939 623.531 14.462 610.625 27.7994C605.331 33.2496 603.121 40.1331 597.318 45.3008C590.065 51.7508 578.502 54.443 569.887 59.8701C568.187 60.9408 566.559 62.1559 565.668 63.6794C563.521 67.3533 566.419 71.6374 570.337 74.2071C579.755 80.3862 594.674 80.5165 602.503 88.0127C605.882 91.2493 607.386 95.4392 610.488 98.8526C621.049 110.473 643.99 108.766 660.403 115.568C669.699 119.465 677.301 125.674 681.073 132.667C682.957 136.172 684.001 139.951 684.94 143.712C686.957 151.905 688.649 160.049 697.769 165.192C701.491 167.282 706.036 168.506 710.591 169.444C725.065 172.385 740.453 172.095 754.027 168.551C762.667 166.281 770.475 162.772 778.31 159.36C788.316 155.008 798.71 150.702 809.876 147.771C815.677 146.25 821.685 145.089 827.926 144.489C852.27 142.15 878.73 148.436 900.871 140.42C921.16 133.076 931.924 113.285 924.59 97.3097C919.595 86.4221 907.537 77.9778 904.293 66.8141C901.04 55.6234 907.022 43.9192 914.473 33.7953C922.018 23.6146 931.123 14.0931 935.845 2.80561C936.641 0.905441 937.346 -1.21274 936.296 -3.0884C935.668 -4.2107 934.484 -5.09306 933.311 -5.92898C906.887 -24.6598 871.4 -35.1436 835.084 -36.9961C834.207 -37.0412 833.328 -37.0825 832.449 -37.1186C795.491 -38.624 758.371 -31.8154 724.033 -21.3806Z" stroke="#444444" stroke-miterlimit="10"/>
<path d="M738.664 -3.39145C729.827 -0.705667 721.317 2.37098 714.598 7.51808C709.226 11.6332 704.15 14.755 696.755 17.0138C682.936 21.2166 664.96 22.1093 655.114 31.3599C651.064 35.1654 649.064 39.9255 644.707 43.5697C639.234 48.1299 630.932 50.2184 624.664 54.1761C623.426 54.9565 622.23 55.8325 621.547 56.9225C619.959 59.4599 621.786 62.4282 624.28 64.2523C630.272 68.6383 639.985 69.0279 645.041 74.344C647.224 76.6389 648.171 79.5736 650.199 81.9911C657.101 90.2213 672.433 89.5801 683.66 94.5647C690.705 97.7497 696.943 101.991 700.633 106.546C702.471 108.83 703.759 111.242 704.918 113.63C707.441 118.824 709.756 123.959 717.025 127.375C720.002 128.774 723.526 129.653 727.042 130.411C737.691 132.709 748.653 133.116 758.306 131.425C764.443 130.351 769.986 128.453 775.583 126.613C782.732 124.273 790.183 121.931 798.319 120.363C802.546 119.551 806.955 118.928 811.539 118.628C829.431 117.464 849.022 121.22 864.944 114.907C879.194 109.255 886.75 95.2123 882.294 83.7055C879.259 75.8584 871.287 69.6845 869.943 61.7523C868.528 53.406 874.054 45.0403 880 37.717C886.064 30.2466 892.655 23.1555 895.379 14.2377C895.816 12.8045 896.229 11.2243 895.426 9.79106C894.954 8.94482 894.107 8.25209 893.257 7.5929C874.414 -7.02409 848.254 -15.382 820.997 -16.3779C820.345 -16.4024 819.693 -16.4243 819.041 -16.4411C791.618 -17.1699 764.107 -11.1263 738.664 -3.39145Z" stroke="#444444" stroke-miterlimit="10"/>
<path d="M753.297 14.599C747.805 16.2708 742.366 18.0858 737.797 20.9535C734.206 23.2071 730.755 24.9783 726.129 26.3134C717.295 28.8406 706.365 29.7487 699.604 34.9216C696.786 37.0759 695.008 39.7191 692.096 41.8399C688.403 44.5089 683.363 45.995 679.441 48.4821C678.668 48.9723 677.905 49.5076 677.429 50.1643C676.408 51.5678 677.156 53.219 678.224 54.2961C680.791 56.889 685.295 57.5379 687.582 60.6739C688.568 62.0284 688.957 63.7054 689.91 65.127C693.152 69.9658 700.877 70.3915 706.918 73.5571C711.712 76.03 716.595 78.2979 720.195 80.4225C721.988 81.4816 723.507 82.5278 724.9 83.5443C727.904 85.7373 730.882 87.8542 736.285 89.5544C738.522 90.2587 741.021 90.7876 743.496 91.3759C750.329 93 756.844 94.121 762.588 94.2964C766.213 94.4074 769.504 94.13 772.857 93.8643C777.149 93.5354 781.66 93.1574 786.761 92.9536C789.417 92.8504 792.223 92.7639 795.151 92.7652C806.591 92.773 819.321 94.0281 829.017 89.3906C837.238 85.4587 841.578 77.1369 839.999 70.0986C838.927 65.2934 835.176 61.3215 835.596 56.6891C836.103 51.1034 841.12 46.173 845.529 41.6361C850.144 36.8876 854.26 32.2539 854.912 25.6672C855.008 24.7061 855.11 23.6573 854.557 22.6679C854.238 22.0964 853.728 21.5972 853.202 21.1122C841.882 10.6619 825.107 4.41053 806.907 4.23767C806.482 4.2338 806.057 4.23122 805.632 4.23251C787.746 4.2854 769.843 9.56279 753.297 14.599Z" stroke="#444444" stroke-miterlimit="10"/>
<path d="M733.307 43.4059C730.076 45.7253 728.241 49.5153 730.172 52.5507C733.971 55.181 739.937 54.5708 744.875 53.4575C749.812 52.3443 755.157 50.8956 759.943 52.3404C767.227 54.5411 768.898 62.0128 775.2 65.5435C780.525 68.526 788.881 67.7456 793.085 63.873C796.943 60.319 797.216 55.07 801.242 51.6232C808.578 45.3434 819.62 44.9784 813.141 34.63C809.242 28.4006 801.954 24.1345 792.811 24.8518C784.266 25.5226 775.76 30.195 767.928 32.5879C757.291 35.8387 741.847 37.2758 733.307 43.4059Z" stroke="#444444" stroke-miterlimit="10"/>
<path d="M1291.8 115.129C1274.02 109.032 1255.69 103.857 1236.98 99.6499C1227.08 97.4233 1213.17 96.8802 1209.69 104.235C1208.42 106.928 1209.15 109.93 1208.37 112.727C1206.31 120.059 1195.05 123.461 1185.21 124.383C1182.84 124.606 1180.35 124.784 1178.35 125.779C1174.87 127.513 1174.06 131.051 1173.68 134.188C1172.29 145.773 1172.15 158.071 1164.03 167.95C1151.74 182.887 1125.64 187.143 1102.38 187.584C1077.31 188.06 1052.16 185.708 1028.01 180.632C1010.7 176.994 992.771 171.918 975.276 174.997C965.931 176.642 957.551 180.516 948.446 182.806C934.072 186.42 918.564 185.952 903.446 186.657C857.972 188.775 813.539 202.171 778.622 224.294C766.979 231.67 756.127 240.266 750.404 250.904C743.612 263.53 744.731 277.955 749.923 291.008C755.116 304.061 764.121 316.029 773.053 327.87C779.363 336.235 788.128 345.714 800.864 345.49C805.883 345.403 810.991 343.726 815.776 344.87C822.961 346.589 825.134 353.335 829.961 357.708C837.782 364.794 852.623 364.995 863.703 361.12C874.783 357.245 883.299 350.263 892.505 344.202C941.488 311.946 1011.02 305.3 1075.98 304.898C1092.23 304.797 1108.77 305.029 1124.26 308.751C1133.73 311.025 1142.61 314.563 1152.13 316.698C1168.54 320.375 1186 319.73 1203.1 320.28C1240.86 321.494 1278.27 328.776 1312.11 341.5" stroke="#444444" stroke-miterlimit="10"/>
<path d="M1286.28 134.001C1278.1 128.667 1269.54 123.175 1259.1 121.059C1248.66 118.942 1235.8 121.284 1230.77 128.513C1229.75 129.987 1229.03 131.657 1227.37 132.751C1224.88 134.391 1221.2 134.206 1217.91 134.362C1206.62 134.896 1196.15 141.017 1192.62 149.142C1188.19 159.351 1193.96 171.538 1186.55 180.706C1181.98 186.362 1173.44 189.377 1165.22 191.682C1136.06 199.854 1104.49 203.051 1073.51 200.964C1044.15 198.985 1014.64 192.348 985.658 196.46C975.049 197.966 964.879 200.882 954.353 202.685C941.247 204.929 927.741 205.426 914.434 206.842C889.689 209.476 865.55 215.337 843.402 224.087C823.289 232.033 804.258 242.836 793.423 257.908C782.587 272.981 781.585 292.936 795.425 306.531C797.664 308.732 800.411 310.812 803.932 311.599C808.68 312.66 813.834 311.17 818.709 311.828C830.328 313.395 834.953 325.863 846.577 327.407C851.898 328.114 857.168 326.252 861.985 324.403C897.126 310.904 931.531 295.063 970.122 288.991C988.819 286.048 1008.01 285.494 1027.09 284.947C1060.54 283.989 1094.58 283.079 1126.93 289.57C1137.86 291.763 1148.5 294.784 1159.56 296.554C1182.86 300.282 1207.07 298.315 1230.78 300.042C1252.69 301.638 1274.18 306.429 1293.72 314.074" stroke="#444444" stroke-miterlimit="10"/>
<path d="M863.514 246.434C856.724 249.219 849.831 252.362 845.58 257.237C841.329 262.112 840.53 269.188 845.744 273.495C848.539 275.803 852.787 277.174 854.559 280.002C855.965 282.248 855.467 284.932 856.591 287.267C858.378 290.98 863.995 292.99 869.221 292.955C874.446 292.92 879.391 291.273 884.14 289.625C912.846 279.674 941.51 268.506 972.769 265.113C999.752 262.185 1027.45 265.217 1054.35 261.89C1064.21 260.671 1075.52 257.393 1077.78 250.038C1083.9 230.079 1043.55 215.498 1022.51 216.426C988.817 217.91 954.82 220.601 922.397 227.949C902.006 232.571 882.229 238.758 863.514 246.434Z" stroke="#444444" stroke-miterlimit="10"/>
<path d="M1294.36 155.44C1286.8 156.256 1279.71 152.909 1272.92 150.251C1266.14 147.594 1257.55 145.597 1251.21 148.812C1247.1 150.89 1245.04 154.677 1241.15 156.975C1238 158.83 1233.84 159.605 1231.03 161.743C1227.27 164.604 1226.92 169.033 1226.01 173.006C1223.81 182.567 1216.91 191.468 1206.96 197.598C1196.33 204.144 1182.9 207.365 1169.89 210.639C1156.88 213.914 1143.53 217.571 1133.61 224.722C1123.69 231.872 1118.08 243.476 1123.83 252.883C1129.51 262.183 1143.87 266.385 1157.17 268.345C1180.43 271.771 1204.4 271.068 1227.91 273.299C1251.42 275.531 1275.72 281.323 1291.31 294.81" stroke="#444444" stroke-miterlimit="10"/>
<path d="M1291.2 188.676C1288.26 184.987 1282.04 183.118 1276.44 183.873C1270.83 184.627 1266.02 187.768 1263.68 191.693C1262.26 194.071 1261.68 196.69 1260.32 199.089C1255.38 207.815 1242.03 211.477 1230.43 215.11C1220.9 218.095 1211.68 221.653 1202.9 225.739C1196.01 228.943 1188.67 233.425 1188.58 239.537C1188.51 243.923 1192.49 247.917 1197.52 250.118C1202.54 252.319 1208.46 253.006 1214.24 253.315C1228.32 254.065 1242.6 252.824 1256.5 254.684C1270.27 256.528 1283.29 261.469 1293.48 268.713" stroke="#444444" stroke-miterlimit="10"/>
<path d="M1286.39 215.839C1278.53 217.715 1270.66 219.591 1262.8 221.468C1260.04 222.126 1257.21 222.813 1254.94 224.175C1251.39 226.312 1249.73 229.884 1249.73 233.32C1249.73 235.464 1250.39 237.719 1252.32 239.283C1256.43 242.593 1263.54 241.3 1269.42 240.403C1280.72 238.681 1294.31 240.17 1300.54 247.494" stroke="#444444" stroke-miterlimit="10"/>
<path d="M922.819 246.84C920.733 247.553 918.562 248.365 917.299 249.808C916.036 251.252 916.125 253.513 918.074 254.423C919.503 255.088 921.337 254.826 922.972 254.541C942.911 251.069 963.004 247.331 983.528 246.649C989.995 246.434 1014.68 250.398 1008.37 243.025C1003.6 237.454 984.678 235.999 977.034 236.136C958.781 236.463 939.307 241.203 922.819 246.84Z" stroke="#444444" stroke-miterlimit="10"/>
<path d="M654.203 345.088C630.748 360.814 617.489 384.09 592.741 398.637C579.738 406.28 562.693 412.537 558.877 424.648C556.809 431.213 559.314 438.093 562.57 444.376C564.982 449.028 567.842 453.592 571.834 457.576C589.923 475.629 626.942 478.275 644.023 496.882C649.972 503.364 653.061 511.416 660.675 516.814C668.15 522.112 678.845 523.969 689.082 524.307C699.319 524.645 709.594 523.68 719.807 524.3C745.279 525.844 770.314 537.121 794.998 532.122C810.011 529.082 821.881 520.421 831.466 511.173C840.076 502.865 847.623 493.421 849.154 482.932C852.07 462.945 832.846 444.433 832.896 424.325C832.91 418.416 834.604 412.573 834.789 406.666C834.973 400.759 833.376 394.443 827.916 390.213C822.953 386.368 815.241 384.571 811.779 379.879C810.805 378.557 810.231 377.071 809.098 375.823C803.84 370.039 792.122 372.996 782.856 372.543C750.947 370.984 753.273 338.663 731.172 328.217C709.214 317.839 670.493 334.165 654.203 345.088Z" stroke="#444444" stroke-miterlimit="10"/>
<path d="M668.848 372.645C663.177 376.605 658.493 381.174 654.003 385.912C645.924 394.451 638.31 403.425 627.432 409.976C618.556 415.311 606.926 419.71 604.105 428.01C602.58 432.505 604.102 437.21 606.126 441.518C607.625 444.708 609.425 447.84 611.983 450.585C623.543 463.063 648.448 464.998 659.309 478.253C662.183 481.759 664.793 485.649 668.129 488.671C669.873 490.259 671.773 491.661 674.021 492.807C676.137 493.887 678.478 494.676 680.957 495.258C685.991 496.43 691.649 496.743 697.213 496.908C704.553 497.14 711.902 496.587 719.201 497.118C731.926 498.047 744.491 502.238 756.98 503.505C762.356 504.049 767.718 504.051 773.057 503.034C783.852 500.982 792.544 495.045 799.621 488.591C806.06 482.759 811.51 476.141 812.732 468.814C815.143 454.716 801.563 441.541 800.643 427.452C800.375 423.344 801.251 419.288 801.089 415.206C800.922 411.119 799.558 406.773 795.624 403.836C792.018 401.152 786.584 399.852 784 396.643C783.273 395.738 782.819 394.723 781.983 393.874C778.062 389.892 769.765 391.738 763.097 391.32C740.524 389.904 740.613 368.043 724.456 360.915C710.779 354.934 689.21 361.739 675.507 368.73C672.954 370.036 670.677 371.366 668.848 372.645Z" stroke="#444444" stroke-miterlimit="10"/>
<path d="M683.491 400.202C680.515 402.487 678.24 405.062 676.023 407.735C672.036 412.573 667.971 417.565 662.122 421.314C657.372 424.341 651.158 426.884 649.332 431.372C648.351 433.797 648.887 436.327 649.682 438.658C650.267 440.386 651.018 442.081 652.133 443.595C657.21 450.478 669.575 451.964 674.598 459.625C676.436 462.43 678.999 465.237 682.146 466.88C683.786 467.737 685.496 468.369 687.37 468.801C689.13 469.21 690.992 469.415 692.905 469.507C696.815 469.694 701.071 469.397 705.347 469.509C709.792 469.627 714.213 469.493 718.599 469.939C726.253 470.718 733.797 473.271 741.376 474.093C744.626 474.444 747.88 474.473 751.121 473.947C757.697 472.881 763.187 469.655 767.78 466.011C772.028 462.64 775.373 458.859 776.313 454.696C778.168 446.479 770.302 438.66 768.394 430.578C767.85 428.277 767.901 426.005 767.392 423.744C766.875 421.478 765.751 419.097 763.337 417.455C761.095 415.929 757.931 415.131 756.227 413.403C755.746 412.917 755.41 412.374 754.876 411.924C752.287 409.744 747.416 410.483 743.347 410.095C730.114 408.834 727.989 397.38 717.751 393.61C708.9 390.35 696.107 393.806 687.561 397.829C685.993 398.574 684.575 399.37 683.491 400.202Z" stroke="#444444" stroke-miterlimit="10"/>
<path d="M699.607 426.933C699.03 427.112 698.431 427.344 698.134 427.76C697.748 428.296 697.984 428.951 698.04 429.559C698.458 434.031 689.227 436.543 689.882 440.999C690.212 443.242 693.193 444.838 696.16 445.092C699.126 445.345 702.063 444.57 704.848 443.758C707.634 442.947 710.489 442.072 713.474 442.115C717.74 442.176 721.57 444.093 725.767 444.683C729.209 445.168 732.87 444.718 735.932 443.433C746.889 438.836 734.8 431.828 727.757 429.979C719.645 427.849 707.879 424.356 699.607 426.933Z" stroke="#444444" stroke-miterlimit="10"/>
<path d="M850.85 663.074C832.765 640.956 817.97 617.302 806.834 592.702C803.739 585.866 800.942 578.294 804.463 571.577C810.126 560.771 828.38 557.902 839.933 550.23C852.687 541.761 856.882 527.529 870.105 519.482C880.35 513.247 894.408 511.814 907.522 512.585C920.634 513.357 933.424 516.071 946.497 517.16C967.281 518.891 988.297 516.486 1009.18 517.313C1030.06 518.14 1052.29 523.018 1064.81 535.675C1071.05 541.984 1074.32 549.67 1079.65 556.44C1091.79 571.845 1114.35 581.608 1137.78 584.371C1161.22 587.136 1185.38 583.471 1207.3 576.622C1222.47 571.881 1236.94 565.6 1252.91 562.739C1268.88 559.879 1287.41 561.101 1299.17 569.759C1302.91 572.515 1311.17 575.368 1314.66 578.306C1330.87 591.935 1340.52 609.462 1345.48 627.398C1350.45 645.334 1350.99 663.791 1350.82 682.116" stroke="#444444" stroke-miterlimit="10"/>
<path d="M895.63 661.346C881.371 644.306 869.745 625.96 861.123 606.851C858.726 601.541 856.576 595.674 859.182 590.447C863.377 582.038 877.128 579.624 885.808 573.52C895.567 566.656 899.026 555.4 909.472 548.958C917.567 543.965 928.614 542.646 939.003 543.095C943.16 543.274 947.289 543.705 951.41 544.22C957.583 544.99 963.731 545.941 969.952 546.478C986.441 547.899 1003.09 546.383 1019.67 547.099C1036.09 547.8 1053.52 551.403 1063.67 560.787C1068.73 565.466 1071.56 571.164 1075.93 576.172C1082.86 584.1 1093.56 589.974 1105.65 593.489C1110.94 595.027 1116.5 596.115 1122.12 596.728C1140.59 598.746 1159.63 596.056 1176.85 591.159C1188.79 587.778 1200.1 583.204 1212.47 581.581C1224.99 579.936 1239.03 581.729 1247.82 589.05C1250.65 591.412 1256.79 593.897 1259.47 596.376C1271.52 607.523 1279.18 621.372 1283.32 635.582C1287.46 649.792 1288.44 664.341 1289.04 678.697" stroke="#444444" stroke-miterlimit="10"/>
<path d="M940.409 659.617C929.976 647.656 921.52 634.617 915.413 621C913.717 617.216 912.208 613.055 913.903 609.319C916.628 603.307 925.874 601.335 931.683 596.81C938.448 591.541 941.169 583.274 948.838 578.434C954.783 574.682 962.819 573.477 970.481 573.602C973.547 573.653 976.606 573.895 979.668 574.22C984.248 574.708 988.803 575.372 993.405 575.793C1005.6 576.905 1017.88 576.278 1030.15 576.883C1042.12 577.456 1054.76 579.784 1062.53 585.897C1066.41 588.946 1068.79 592.656 1072.21 595.903C1077.62 601.042 1085.55 604.802 1094.4 607.035C1098.28 608.011 1102.35 608.698 1106.47 609.085C1119.96 610.356 1133.88 608.641 1146.4 605.698C1155.11 603.675 1163.3 600.825 1172.02 600.423C1181.15 600.002 1190.65 602.376 1196.47 608.34C1198.39 610.313 1202.41 612.413 1204.28 614.445C1212.2 623.065 1217.84 633.28 1221.15 643.764C1224.47 654.248 1225.9 664.891 1227.26 675.278" stroke="#444444" stroke-miterlimit="10"/>
<path d="M985.19 657.888C978.584 651.008 973.297 643.275 969.704 635.147C968.706 632.89 967.842 630.435 968.626 628.187C969.883 624.574 974.601 623.013 977.562 620.098C981.323 616.393 983.317 611.145 988.208 607.909C992.002 605.398 997.026 604.308 1001.96 604.111C1003.94 604.032 1005.93 604.085 1007.93 604.222C1010.92 604.427 1013.88 604.806 1016.86 605.109C1024.76 605.913 1032.67 606.174 1040.64 606.666C1048.16 607.111 1055.99 608.165 1061.4 611.007C1064.09 612.425 1066.04 614.147 1068.5 615.632C1072.39 617.984 1077.54 619.631 1083.15 620.579C1085.62 620.992 1088.2 621.279 1090.82 621.438C1099.33 621.963 1108.12 621.2 1115.95 620.231C1121.43 619.552 1126.59 618.52 1131.58 619.261C1137.4 620.122 1142.25 623.055 1145.12 627.625C1146.12 629.222 1148.05 630.909 1149.09 632.512C1152.98 638.514 1156.5 645.187 1158.99 651.944C1161.48 658.702 1163.35 665.436 1165.48 671.855" stroke="#444444" stroke-miterlimit="10"/>
<path d="M1029.97 656.16C1025.18 653.051 1022.35 648.092 1023.44 643.389C1024.52 638.685 1029.89 634.573 1036.19 634.223C1041.27 633.941 1046.08 635.926 1051.13 636.451C1058.11 637.176 1064.98 635.102 1071.9 634.127C1078.83 633.151 1087.16 633.712 1091.14 638.102C1094.34 641.633 1093.57 646.308 1093.9 650.58C1094.41 657.135 1097.92 663.533 1103.69 668.437" stroke="#444444" stroke-miterlimit="10"/>
</g>
</g>
<defs>
<clipPath id="clip0_27_174">
<rect width="1280" height="645" fill="white"/>
</clipPath>
</defs>
</svg>
